<svg width="14" height="15" viewBox="0 0 14 15" fill="none" xmlns="http://www.w3.org/2000/svg">
<path fill-rule="evenodd" clip-rule="evenodd" d="M13.8751 5.78673H7.14791C7.14791 6.48633 7.14791 7.88554 7.14362 8.58515H11.0418C10.8925 9.28476 10.3628 10.2642 9.61449 10.7574C9.61377 10.7567 9.61306 10.7616 9.61163 10.7609C8.61671 11.4179 7.30372 11.5669 6.32881 11.371C4.80069 11.0674 3.59134 9.95918 3.10032 8.55157C3.10317 8.54947 3.10532 8.52988 3.10746 8.52848C2.80012 7.65538 2.80012 6.48633 3.10746 5.78673H3.10675C3.50272 4.50085 4.74851 3.32761 6.27878 3.00649C7.50957 2.74554 8.89832 3.02818 9.91968 3.98384C10.0555 3.85092 11.7995 2.14807 11.9303 2.00955C8.44088 -1.15057 2.85373 -0.0388942 0.763104 4.04191H0.762389C0.762389 4.04191 0.763104 4.04191 0.758816 4.0496C-0.275418 6.05398 -0.232534 8.41585 0.765963 10.3244C0.763104 10.3265 0.76096 10.3279 0.758816 10.33C1.66368 12.086 3.31045 13.4327 5.29458 13.9455C7.40236 14.4982 10.0848 14.1204 11.8817 12.4952C11.8824 12.4959 11.8831 12.4966 11.8838 12.4973C13.4062 11.1261 14.354 8.79014 13.8751 5.78673Z" fill="#222222"/>
</svg>
