<svg width="16" height="17" viewBox="0 0 16 17" fill="none" xmlns="http://www.w3.org/2000/svg">
<path fill-rule="evenodd" clip-rule="evenodd" d="M16 16.184H12.9231V10.5807C12.9231 9.04363 12.2715 8.1862 11.1031 8.1862C9.83154 8.1862 9.07692 9.07965 9.07692 10.5807V16.184H6V5.77645H9.07692V6.9469C9.07692 6.9469 10.0423 5.18402 12.2177 5.18402C14.3938 5.18402 16 6.56583 16 9.42551C16 12.2844 16 16.184 16 16.184ZM1.50031 3.18402C0.671513 3.18402 0 2.51221 0 1.68372C0 0.855836 0.671513 0.184021 1.50031 0.184021C2.32849 0.184021 3 0.855836 3 1.68372C3.00061 2.51221 2.32849 3.18402 1.50031 3.18402ZM0 16.184H3V6.18402H0V16.184Z" fill="#222222"/>
</svg>
