<svg width="16" height="15" viewBox="0 0 16 15" fill="none" xmlns="http://www.w3.org/2000/svg">
<path fill-rule="evenodd" clip-rule="evenodd" d="M5.032 14.184C11.0696 14.184 14.372 8.79722 14.372 4.1263C14.372 3.97296 14.372 3.82048 14.3624 3.66886C15.0048 3.1692 15.5592 2.54894 16 1.83908C15.4016 2.12509 14.7656 2.31289 14.1152 2.3956C14.8 1.95366 15.3128 1.25931 15.5584 0.440048C14.9136 0.851833 14.2088 1.14215 13.4736 1.29808C12.2304 -0.12508 10.1512 -0.193998 8.8288 1.14473C7.9768 2.00793 7.6144 3.29498 7.8792 4.52258C5.24 4.37957 2.7808 3.0374 1.1136 0.829435C0.2424 2.4447 0.688 4.51052 2.1304 5.54773C1.608 5.53137 1.0968 5.37975 0.64 5.1058V5.15059C0.6408 6.83305 1.7424 8.28205 3.2736 8.61545C2.7904 8.75759 2.2832 8.77826 1.792 8.67575C2.2216 10.1161 3.4544 11.1025 4.8584 11.131C3.696 12.1148 2.26 12.6489 0.7816 12.6471C0.5208 12.6463 0.26 12.6299 0 12.5963C1.5016 13.6335 3.248 14.184 5.032 14.1814" fill="#222222"/>
</svg>
